<svg width="331" height="450" viewBox="0 0 331 450" fill="none" xmlns="http://www.w3.org/2000/svg">
<path d="M265.857 46.3401H67.56V70.5569H265.857V46.3401Z" fill="black"/>
<path d="M317.613 230.288C308.603 218.971 295.33 210.665 277.966 205.439V36.3252C277.966 16.2955 261.671 0 241.641 0H91.7768C71.7471 0 55.4516 16.2955 55.4516 36.3252V181.799H45.4065C25.3768 181.799 9.0813 198.095 9.0813 218.124V219.738C9.0813 226.827 11.1288 233.441 14.6548 239.038C5.76723 245.666 0 256.257 0 268.172V269.786C0 281.701 5.76723 292.292 14.6548 298.921C11.13 304.516 9.0813 311.132 9.0813 318.219V319.834C9.0813 339.863 25.3768 356.159 45.4065 356.159H55.4855C56.0025 370.242 64.5704 382.297 76.7164 387.855C77.8437 400.572 81.6614 424.406 94.5981 442.993C96.9507 446.374 100.718 448.185 104.546 448.185C106.934 448.185 109.345 447.48 111.453 446.014C116.942 442.194 118.294 434.647 114.474 429.158C106.243 417.332 102.848 401.783 101.445 391.137H201.564C201.893 391.639 202.224 392.128 202.55 392.603C206.355 398.101 213.898 399.479 219.397 395.671C224.896 391.866 226.271 384.324 222.466 378.824C208.034 357.963 211.827 335.375 234.067 309.792C237.781 306.581 248.969 295.586 247.649 280.692C246.647 269.379 239.042 259.873 225.044 252.435C224.628 252.213 224.199 252.017 223.76 251.846C223.195 251.626 209.952 246.302 211.965 232.829C213.184 224.671 229.846 222.811 240.742 223.546C268.78 225.446 288.809 232.995 298.663 245.373C305.628 254.121 307.874 265.501 305.532 280.164C305.032 283.294 304.535 286.51 304.025 289.801C297.055 334.837 288.382 390.886 243.64 428.637C238.529 432.949 237.882 440.588 242.195 445.7C244.591 448.539 248.01 450 251.455 450C254.212 450 256.985 449.064 259.258 447.145C310.927 403.549 320.771 339.946 327.957 293.504C328.46 290.254 328.951 287.075 329.445 283.983C332.877 262.526 328.894 244.46 317.613 230.288ZM36.3252 281.894C29.6486 281.894 24.2168 276.462 24.2168 269.786V268.172C24.2168 261.495 29.6486 256.063 36.3252 256.063H45.4065H54.4878V281.894H45.4065H36.3252ZM33.2981 218.124C33.2981 211.448 38.7299 206.016 45.4065 206.016H54.4878V231.847H45.4065C38.7299 231.847 33.2981 226.415 33.2981 219.738V218.124ZM54.4878 331.942H45.4065C38.7299 331.942 33.2981 326.51 33.2981 319.834V318.219C33.2981 311.543 38.7299 306.111 45.4065 306.111H54.4878V331.942ZM91.7768 366.919C85.1002 366.919 79.6684 361.488 79.6684 354.811V344.796H190.408C189.378 352.87 189.879 360.279 191.293 366.919H91.7768ZM188.017 229.249C184.234 254.563 203.064 269.43 214.201 274.099C220.789 277.693 223.344 280.937 223.526 282.802C223.78 285.406 220.435 289.685 218.105 291.582C217.521 292.04 216.98 292.551 216.488 293.109C208.028 302.718 201.98 311.901 197.803 320.581H79.6684V36.3252C79.6684 29.6486 85.1002 24.2168 91.7768 24.2168H241.641C248.318 24.2168 253.75 29.6486 253.75 36.3252V200.49C250.078 200.028 246.303 199.649 242.381 199.383C211.918 197.332 191.078 208.764 188.017 229.249Z" fill="black"/>
<path d="M157.217 100.702H128.084C124.741 100.702 122.03 103.412 122.03 106.756V135.89C122.03 139.234 124.741 141.944 128.084 141.944H157.217C160.56 141.944 163.271 139.234 163.271 135.89V106.756C163.271 103.412 160.56 100.702 157.217 100.702Z" fill="black"/>
<path d="M149.346 172.981H134.138V158.378C134.138 155.034 131.427 152.324 128.084 152.324C124.741 152.324 122.03 155.034 122.03 158.378V179.036C122.03 182.38 124.741 185.09 128.084 185.09H149.346C152.689 185.09 155.4 182.38 155.4 179.036C155.4 175.692 152.689 172.981 149.346 172.981Z" fill="black"/>
<path d="M202.549 100.702H173.416C170.073 100.702 167.362 103.412 167.362 106.756V135.89C167.362 139.234 170.073 141.944 173.416 141.944H202.549C205.892 141.944 208.603 139.234 208.603 135.89V106.756C208.603 103.412 205.894 100.702 202.549 100.702ZM196.495 129.836H179.471V112.81H196.495V129.836Z" fill="black"/>
<path d="M196.617 152.488H179.352C176.009 152.488 173.298 155.198 173.298 158.542V175.805C173.298 179.15 176.009 181.86 179.352 181.86H196.617C199.96 181.86 202.672 179.15 202.672 175.805V158.542C202.672 155.198 199.96 152.488 196.617 152.488Z" fill="black"/>
</svg>
